<?xml version="1.0" encoding="utf-8"?>
<!-- Generator: Adobe Illustrator 24.0.2, SVG Export Plug-In . SVG Version: 6.00 Build 0)  -->
<svg version="1.1" id="Layer_1" xmlns="http://www.w3.org/2000/svg" xmlns:xlink="http://www.w3.org/1999/xlink" x="0px" y="0px"
	 viewBox="0 0 24 24" style="enable-background:new 0 0 24 24;" xml:space="preserve">
<style type="text/css">
	.st0{fill:#E91B00;}
	.st1{fill:none;stroke:#000000;stroke-width:1.5;stroke-miterlimit:10;}
	.st2{fill:none;stroke:#E91B00;stroke-width:0.7;stroke-linecap:round;stroke-linejoin:round;stroke-miterlimit:10;}
</style>
<path class="st0" d="M9.3,5c0-0.6-0.4-1-1-1s-1,0.4-1,1v4c0,0.6,0.4,1,1,1s1-0.4,1-1V5z"/>
<path class="st1" d="M8.3,23.6L8.3,23.6c-3.9,0-7-3.2-7-7V7.9c0-3.8,3.1-7,7-7h0c3.9,0,7,3.2,7,7v8.7C15.3,20.4,12.2,23.6,8.3,23.6z
	"/>
<polyline class="st2" points="22,18.5 20.3,20.3 18.5,18.5 "/>
<line class="st2" x1="20.3" y1="17.9" x2="20.3" y2="4"/>
</svg>
